<svg xmlns="http://www.w3.org/2000/svg" viewBox="0 0 1040 660" font-family="-apple-system,Segoe UI,Roboto,Helvetica,Arial,sans-serif">
<rect x="0" y="0" width="1040" height="660" fill="#fbfbfa"/>
<text x="58" y="40" font-size="24" font-weight="700" fill="#14150f">NAV growth of $100, log scale — 1991–2026</text>
<text x="58" y="64" font-size="13" fill="#57574e">Regime stacks vs benchmarks · net of 20 bps/rotation · B = risk-parity All Weather (the benchmark to beat)</text>
<rect x="279.7" y="96" width="49.7" height="436.0" fill="#14150f0d"/>
<text x="304.6" y="109" font-size="10" fill="#8a8a7e" text-anchor="middle" font-family="ui-monospace,Menlo,monospace">dot-com</text>
<rect x="455.8" y="96" width="41.4" height="436.0" fill="#14150f0d"/>
<text x="476.5" y="109" font-size="10" fill="#8a8a7e" text-anchor="middle" font-family="ui-monospace,Menlo,monospace">GFC</text>
<rect x="760.4" y="96" width="8.3" height="436.0" fill="#14150f0d"/>
<text x="764.5" y="109" font-size="10" fill="#8a8a7e" text-anchor="middle" font-family="ui-monospace,Menlo,monospace">COVID</text>
<line x1="58" y1="508.2" x2="922" y2="508.2" stroke="#e4e4dd" stroke-width="1"/>
<text x="50" y="511.2" font-size="11" fill="#8a8a7e" text-anchor="end" font-family="ui-monospace,Menlo,monospace">×1</text>
<line x1="58" y1="391.2" x2="922" y2="391.2" stroke="#e4e4dd" stroke-width="1"/>
<text x="50" y="394.2" font-size="11" fill="#8a8a7e" text-anchor="end" font-family="ui-monospace,Menlo,monospace">×3</text>
<line x1="58" y1="263.0" x2="922" y2="263.0" stroke="#e4e4dd" stroke-width="1"/>
<text x="50" y="266.0" font-size="11" fill="#8a8a7e" text-anchor="end" font-family="ui-monospace,Menlo,monospace">×10</text>
<line x1="58" y1="146.0" x2="922" y2="146.0" stroke="#e4e4dd" stroke-width="1"/>
<text x="50" y="149.0" font-size="11" fill="#8a8a7e" text-anchor="end" font-family="ui-monospace,Menlo,monospace">×30</text>
<text x="138.8" y="554.0" font-size="11" fill="#8a8a7e" text-anchor="middle" font-family="ui-monospace,Menlo,monospace">1995</text>
<text x="263.1" y="554.0" font-size="11" fill="#8a8a7e" text-anchor="middle" font-family="ui-monospace,Menlo,monospace">2000</text>
<text x="387.4" y="554.0" font-size="11" fill="#8a8a7e" text-anchor="middle" font-family="ui-monospace,Menlo,monospace">2005</text>
<text x="511.8" y="554.0" font-size="11" fill="#8a8a7e" text-anchor="middle" font-family="ui-monospace,Menlo,monospace">2010</text>
<text x="636.1" y="554.0" font-size="11" fill="#8a8a7e" text-anchor="middle" font-family="ui-monospace,Menlo,monospace">2015</text>
<text x="760.4" y="554.0" font-size="11" fill="#8a8a7e" text-anchor="middle" font-family="ui-monospace,Menlo,monospace">2020</text>
<text x="884.7" y="554.0" font-size="11" fill="#8a8a7e" text-anchor="middle" font-family="ui-monospace,Menlo,monospace">2025</text>
<path d="M58.0 508.2 L60.1 512.6 L62.1 501.1 L64.2 503.1 L66.3 501.8 L68.4 503.9 L70.4 500.8 L72.5 500.3 L74.6 501.9 L76.6 497.7 L78.7 499.7 L80.8 498.7 L82.9 498.3 L84.9 494.7 L87.0 492.7 L89.1 492.6 L91.2 491.5 L93.2 489.1 L95.3 491.9 L97.4 489.0 L99.4 488.7 L101.5 489.2 L103.6 485.2 L105.7 486.0 L107.7 483.9 L109.8 485.0 L111.9 483.7 L113.9 480.1 L116.0 483.2 L118.1 487.8 L120.2 486.6 L122.2 484.9 L124.3 487.4 L126.4 484.0 L128.4 480.0 L130.5 482.7 L132.6 479.7 L134.7 484.1 L136.7 483.3 L138.8 479.8 L140.9 475.5 L142.9 472.6 L145.0 469.5 L147.1 465.3 L149.2 463.2 L151.2 459.8 L153.3 459.4 L155.4 454.9 L157.5 455.2 L159.5 450.6 L161.6 448.9 L163.7 445.2 L165.7 444.9 L167.8 443.1 L169.9 441.9 L172.0 439.5 L174.0 438.6 L176.1 443.5 L178.2 441.5 L180.2 435.7 L182.3 432.3 L184.4 424.8 L186.5 427.3 L188.5 421.0 L190.6 419.9 L192.7 422.5 L194.7 418.3 L196.8 411.8 L198.9 407.5 L201.0 399.3 L203.0 405.0 L205.1 400.0 L207.2 402.6 L209.3 398.6 L211.3 396.6 L213.4 395.2 L215.5 388.1 L217.5 383.0 L219.6 381.7 L221.7 383.9 L223.8 379.5 L225.8 380.9 L227.9 389.2 L230.0 390.6 L232.0 382.3 L234.1 376.5 L236.2 369.7 L238.3 366.0 L240.3 369.5 L242.4 365.2 L244.5 361.2 L246.5 363.7 L248.6 357.9 L250.7 361.3 L252.8 361.9 L254.8 364.3 L256.9 357.6 L259.0 355.9 L261.1 350.1 L263.1 355.4 L265.2 357.0 L267.3 347.2 L269.3 351.0 L271.4 352.7 L273.5 350.6 L275.6 352.3 L277.6 345.6 L279.7 351.6 L281.8 352.1 L283.8 360.3 L285.9 360.9 L288.0 356.3 L290.1 366.9 L292.1 373.1 L294.2 364.3 L296.3 364.9 L298.3 367.5 L300.4 368.6 L302.5 375.1 L304.6 384.2 L306.6 382.8 L308.7 374.8 L310.8 374.2 L312.8 375.3 L314.9 377.2 L317.0 373.7 L319.1 380.1 L321.1 380.7 L323.2 388.9 L325.3 397.6 L327.4 396.9 L329.4 408.7 L331.5 400.3 L333.6 393.9 L335.6 400.1 L337.7 402.8 L339.8 404.2 L341.9 404.0 L343.9 395.3 L346.0 389.6 L348.1 388.5 L350.1 386.6 L352.2 384.4 L354.3 385.6 L356.4 380.0 L358.4 378.9 L360.5 373.7 L362.6 371.6 L364.6 370.1 L366.7 371.6 L368.8 373.6 L370.9 371.8 L372.9 369.8 L375.0 373.3 L377.1 373.1 L379.2 372.0 L381.2 370.6 L383.3 366.0 L385.4 362.8 L387.4 365.3 L389.5 363.1 L391.6 365.0 L393.7 367.0 L395.7 363.7 L397.8 363.5 L399.9 359.5 L401.9 360.5 L404.0 359.6 L406.1 362.2 L408.2 357.6 L410.2 357.8 L412.3 355.3 L414.4 354.7 L416.4 352.9 L418.5 351.6 L420.6 354.9 L422.7 354.6 L424.7 354.1 L426.8 351.8 L428.9 349.0 L430.9 345.7 L433.0 343.6 L435.1 342.2 L437.2 340.6 L439.2 342.7 L441.3 341.4 L443.4 336.8 L445.5 333.3 L447.5 334.8 L449.6 338.2 L451.7 336.9 L453.7 332.8 L455.8 331.4 L457.9 335.6 L460.0 336.8 L462.0 343.5 L464.1 346.2 L466.2 347.2 L468.2 342.2 L470.3 340.6 L472.4 349.9 L474.5 350.9 L476.5 349.3 L478.6 359.8 L480.7 379.0 L482.7 386.7 L484.8 385.7 L486.9 394.8 L489.0 406.9 L491.0 398.4 L493.1 388.3 L495.2 382.2 L497.3 382.3 L499.3 374.6 L501.4 370.8 L503.5 367.1 L505.5 369.1 L507.6 362.8 L509.7 360.8 L511.8 364.7 L513.8 361.4 L515.9 355.1 L518.0 353.5 L520.0 362.3 L522.1 368.0 L524.2 360.9 L526.3 365.8 L528.3 356.7 L530.4 352.7 L532.5 352.7 L534.5 345.8 L536.6 343.4 L538.7 339.7 L540.8 339.7 L542.8 336.7 L544.9 337.9 L547.0 339.7 L549.1 341.8 L551.1 347.9 L553.2 355.5 L555.3 344.5 L557.3 344.9 L559.4 343.8 L561.5 339.0 L563.6 334.5 L565.6 331.1 L567.7 331.8 L569.8 338.4 L571.8 334.2 L573.9 332.9 L576.0 330.3 L578.1 327.6 L580.1 329.6 L582.2 329.0 L584.3 328.0 L586.3 322.7 L588.4 321.4 L590.5 317.4 L592.6 315.4 L594.6 312.9 L596.7 314.3 L598.8 308.9 L600.8 312.2 L602.9 308.9 L605.0 304.1 L607.1 300.9 L609.1 298.2 L611.2 302.0 L613.3 297.3 L615.4 296.4 L617.4 295.7 L619.5 293.2 L621.6 291.1 L623.6 292.5 L625.7 288.4 L627.8 289.9 L629.9 287.4 L631.9 284.5 L634.0 284.8 L636.1 288.0 L638.1 282.1 L640.2 283.8 L642.3 282.8 L644.4 281.4 L646.4 283.6 L648.5 281.2 L650.6 287.9 L652.6 290.7 L654.7 282.0 L656.8 281.6 L658.9 283.5 L660.9 288.9 L663.0 289.0 L665.1 282.1 L667.2 281.6 L669.2 279.8 L671.3 279.5 L673.4 275.7 L675.4 275.5 L677.5 275.5 L679.6 277.4 L681.7 273.5 L683.7 271.4 L685.8 269.5 L687.9 265.4 L689.9 265.3 L692.0 264.2 L694.1 262.7 L696.2 262.0 L698.2 259.9 L700.3 259.6 L702.4 257.4 L704.4 255.0 L706.5 251.8 L708.6 250.5 L710.7 244.6 L712.7 248.6 L714.8 251.5 L716.9 251.0 L718.9 248.4 L721.0 247.8 L723.1 243.9 L725.2 240.6 L727.2 240.0 L729.3 247.6 L731.4 245.6 L733.5 255.5 L735.5 247.3 L737.6 243.9 L739.7 241.9 L741.7 237.7 L743.8 244.7 L745.9 237.5 L748.0 235.9 L750.0 237.7 L752.1 235.7 L754.2 233.4 L756.2 229.6 L758.3 226.5 L760.4 226.6 L762.5 235.3 L764.5 249.5 L766.6 236.8 L768.7 231.9 L770.7 230.0 L772.8 223.9 L774.9 216.7 L777.0 220.8 L779.0 223.5 L781.1 212.5 L783.2 208.6 L785.3 209.7 L787.3 206.8 L789.4 202.0 L791.5 196.5 L793.5 195.8 L795.6 193.5 L797.7 190.9 L799.8 187.8 L801.8 192.9 L803.9 185.7 L806.0 186.5 L808.0 181.7 L810.1 187.5 L812.2 190.7 L814.3 186.7 L816.3 196.5 L818.4 196.3 L820.5 205.4 L822.5 196.1 L824.6 200.5 L826.7 210.8 L828.8 202.5 L830.8 196.7 L832.9 203.1 L835.0 196.6 L837.1 199.3 L839.1 195.4 L841.2 193.7 L843.3 193.2 L845.3 186.5 L847.4 183.1 L849.5 184.9 L851.6 190.0 L853.6 192.4 L855.7 183.1 L857.8 178.3 L859.8 176.6 L861.9 171.2 L864.0 167.8 L866.1 172.2 L868.1 166.9 L870.2 163.2 L872.3 161.9 L874.3 159.5 L876.4 157.3 L878.5 158.2 L880.6 152.0 L882.6 154.6 L884.7 151.8 L886.8 153.2 L888.8 159.3 L890.9 160.2 L893.0 153.7 L895.1 148.4 L897.1 146.0 L899.2 143.8 L901.3 140.1 L903.4 137.6 L905.4 137.4 L907.5 137.3 L909.6 135.7 L911.6 136.6 L913.7 142.0 L915.8 131.4 L917.9 125.9 L919.9 127.0 L922.0 127.5" fill="none" stroke="#8a8a7e" stroke-width="1.5" stroke-linejoin="round"/>
<path d="M58.0 508.2 L60.1 509.2 L62.1 503.7 L64.2 505.6 L66.3 505.0 L68.4 506.4 L70.4 505.5 L72.5 503.7 L74.6 503.3 L76.6 499.7 L78.7 500.8 L80.8 499.0 L82.9 500.4 L84.9 499.5 L87.0 497.6 L89.1 496.2 L91.2 494.3 L93.2 493.0 L95.3 492.8 L97.4 491.2 L99.4 489.4 L101.5 488.3 L103.6 486.4 L105.7 487.1 L107.7 485.8 L109.8 487.3 L111.9 486.7 L113.9 484.7 L116.0 487.4 L118.1 490.4 L120.2 490.9 L122.2 489.8 L124.3 490.7 L126.4 488.3 L128.4 487.4 L130.5 489.3 L132.6 488.8 L134.7 490.1 L136.7 489.0 L138.8 486.9 L140.9 484.3 L142.9 482.6 L145.0 480.6 L147.1 476.2 L149.2 475.0 L151.2 474.6 L153.3 473.4 L155.4 471.2 L157.5 470.0 L159.5 467.2 L161.6 465.2 L163.7 463.5 L165.7 465.4 L167.8 465.4 L169.9 465.7 L172.0 465.2 L174.0 464.2 L176.1 465.7 L178.2 465.2 L180.2 462.3 L182.3 459.7 L184.4 455.7 L186.5 457.6 L188.5 456.5 L190.6 455.6 L192.7 457.9 L194.7 455.5 L196.8 452.7 L198.9 451.5 L201.0 446.8 L203.0 449.6 L205.1 446.7 L207.2 446.8 L209.3 445.9 L211.3 445.1 L213.4 443.3 L215.5 441.9 L217.5 440.2 L219.6 439.3 L221.7 440.2 L223.8 438.0 L225.8 439.3 L227.9 441.2 L230.0 437.8 L232.0 436.2 L234.1 434.7 L236.2 433.2 L238.3 431.8 L240.3 435.3 L242.4 433.5 L244.5 431.6 L246.5 434.3 L248.6 432.9 L250.7 434.2 L252.8 434.2 L254.8 432.0 L256.9 430.4 L259.0 430.1 L261.1 428.9 L263.1 430.0 L265.2 428.8 L267.3 425.0 L269.3 426.5 L271.4 426.7 L273.5 424.1 L275.6 424.9 L277.6 421.2 L279.7 423.1 L281.8 423.2 L283.8 423.5 L285.9 421.9 L288.0 420.6 L290.1 422.9 L292.1 425.4 L294.2 423.3 L296.3 423.4 L298.3 424.1 L300.4 422.8 L302.5 423.4 L304.6 425.2 L306.6 423.4 L308.7 423.2 L310.8 424.0 L312.8 423.7 L314.9 422.8 L317.0 422.4 L319.1 422.3 L321.1 421.7 L323.2 423.3 L325.3 424.9 L327.4 421.9 L329.4 422.4 L331.5 421.5 L333.6 420.2 L335.6 418.6 L337.7 418.3 L339.8 417.7 L341.9 419.1 L343.9 416.1 L346.0 410.3 L348.1 411.5 L350.1 414.9 L352.2 412.9 L354.3 409.9 L356.4 409.1 L358.4 408.3 L360.5 404.8 L362.6 403.6 L364.6 401.9 L366.7 400.5 L368.8 405.2 L370.9 404.5 L372.9 403.8 L375.0 404.0 L377.1 401.7 L379.2 400.4 L381.2 398.7 L383.3 397.9 L385.4 396.6 L387.4 396.3 L389.5 395.5 L391.6 396.2 L393.7 395.4 L395.7 393.5 L397.8 392.1 L399.9 392.2 L401.9 390.3 L404.0 390.4 L406.1 392.7 L408.2 390.4 L410.2 388.4 L412.3 387.1 L414.4 387.2 L416.4 387.9 L418.5 386.7 L420.6 387.8 L422.7 388.0 L424.7 386.2 L426.8 384.6 L428.9 383.9 L430.9 382.0 L433.0 379.2 L435.1 380.5 L437.2 380.1 L439.2 378.7 L441.3 378.9 L443.4 376.8 L445.5 377.0 L447.5 378.2 L449.6 377.2 L451.7 376.0 L453.7 372.9 L455.8 370.7 L457.9 369.8 L460.0 369.2 L462.0 368.3 L464.1 367.5 L466.2 368.0 L468.2 367.8 L470.3 368.3 L472.4 368.7 L474.5 370.1 L476.5 369.9 L478.6 373.0 L480.7 383.0 L482.7 378.4 L484.8 372.4 L486.9 380.1 L489.0 384.5 L491.0 379.9 L493.1 379.8 L495.2 377.4 L497.3 378.0 L499.3 374.8 L501.4 372.9 L503.5 370.0 L505.5 370.8 L507.6 366.4 L509.7 369.4 L511.8 370.0 L513.8 368.4 L515.9 367.5 L518.0 364.8 L520.0 365.3 L522.1 364.3 L524.2 362.2 L526.3 359.8 L528.3 356.7 L530.4 356.1 L532.5 356.7 L534.5 355.3 L536.6 356.2 L538.7 353.8 L540.8 353.5 L542.8 350.3 L544.9 349.6 L547.0 351.8 L549.1 349.2 L551.1 345.5 L553.2 345.5 L555.3 342.3 L557.3 341.7 L559.4 341.3 L561.5 338.4 L563.6 338.2 L565.6 339.3 L567.7 337.5 L569.8 337.4 L571.8 336.0 L573.9 333.5 L576.0 332.5 L578.1 332.0 L580.1 333.5 L582.2 332.7 L584.3 333.9 L586.3 333.5 L588.4 333.3 L590.5 332.0 L592.6 330.6 L594.6 333.6 L596.7 337.3 L598.8 335.5 L600.8 336.4 L602.9 335.5 L605.0 333.6 L607.1 334.4 L609.1 334.9 L611.2 333.0 L613.3 330.1 L615.4 330.0 L617.4 328.7 L619.5 327.2 L621.6 326.0 L623.6 327.1 L625.7 324.0 L627.8 326.6 L629.9 325.0 L631.9 323.3 L634.0 322.9 L636.1 319.2 L638.1 320.3 L640.2 321.0 L642.3 321.4 L644.4 322.0 L646.4 324.4 L648.5 323.5 L650.6 325.4 L652.6 325.7 L654.7 323.1 L656.8 324.8 L658.9 325.9 L660.9 324.6 L663.0 322.3 L665.1 320.0 L667.2 318.8 L669.2 318.7 L671.3 314.4 L673.4 312.8 L675.4 313.8 L677.5 313.9 L679.6 316.6 L681.7 319.8 L683.7 319.3 L685.8 317.9 L687.9 315.6 L689.9 316.1 L692.0 315.0 L694.1 313.9 L696.2 313.8 L698.2 312.8 L700.3 310.9 L702.4 311.6 L704.4 310.8 L706.5 309.7 L708.6 308.2 L710.7 307.4 L712.7 310.1 L714.8 309.8 L716.9 310.5 L718.9 308.8 L721.0 309.1 L723.1 309.0 L725.2 307.7 L727.2 308.6 L729.3 311.8 L731.4 310.4 L733.5 310.8 L735.5 307.3 L737.6 306.8 L739.7 304.1 L741.7 303.6 L743.8 303.0 L745.9 299.1 L748.0 298.7 L750.0 294.3 L752.1 295.0 L754.2 294.1 L756.2 293.8 L758.3 293.3 L760.4 290.3 L762.5 290.6 L764.5 293.1 L766.6 288.1 L768.7 286.4 L770.7 285.2 L772.8 280.1 L774.9 279.1 L777.0 280.8 L779.0 282.9 L781.1 279.1 L783.2 277.2 L785.3 279.0 L787.3 280.5 L789.4 281.6 L791.5 277.8 L793.5 276.5 L795.6 274.8 L797.7 271.9 L799.8 271.3 L801.8 273.9 L803.9 270.6 L806.0 270.5 L808.0 269.1 L810.1 271.9 L812.2 272.2 L814.3 272.8 L816.3 279.6 L818.4 280.3 L820.5 284.7 L822.5 280.4 L824.6 284.3 L826.7 292.2 L828.8 291.9 L830.8 286.0 L832.9 289.0 L835.0 283.3 L837.1 287.5 L839.1 283.2 L841.2 282.4 L843.3 284.2 L845.3 282.2 L847.4 281.3 L849.5 283.1 L851.6 288.6 L853.6 290.6 L855.7 283.7 L857.8 278.9 L859.8 279.2 L861.9 278.8 L864.0 276.1 L866.1 279.6 L868.1 276.4 L870.2 274.6 L872.3 272.2 L874.3 270.3 L876.4 267.8 L878.5 270.2 L880.6 267.8 L882.6 271.2 L884.7 269.0 L886.8 266.7 L888.8 267.5 L890.9 267.8 L893.0 267.2 L895.1 264.1 L897.1 264.0 L899.2 262.2 L901.3 258.4 L903.4 256.4 L905.4 255.2 L907.5 256.0 L909.6 253.3 L911.6 250.6 L913.7 254.3 L915.8 251.0 L917.9 249.7 L919.9 251.6 L922.0 251.8" fill="none" stroke="#b0b0a4" stroke-width="1.5" stroke-linejoin="round" stroke-dasharray="2 4"/>
<path d="M58.0 508.2 L60.1 509.5 L62.1 505.5 L64.2 506.7 L66.3 506.3 L68.4 507.7 L70.4 506.8 L72.5 505.8 L74.6 505.3 L76.6 502.1 L78.7 503.8 L80.8 502.3 L82.9 503.4 L84.9 502.7 L87.0 501.4 L89.1 500.7 L91.2 499.7 L93.2 498.3 L95.3 497.4 L97.4 494.5 L99.4 493.4 L101.5 491.4 L103.6 491.4 L105.7 492.7 L107.7 490.7 L109.8 491.5 L111.9 489.6 L113.9 488.9 L116.0 490.5 L118.1 491.9 L120.2 492.8 L122.2 491.7 L124.3 492.5 L126.4 490.9 L128.4 489.8 L130.5 490.5 L132.6 490.3 L134.7 491.4 L136.7 490.7 L138.8 489.5 L140.9 487.6 L142.9 485.7 L145.0 484.2 L147.1 481.4 L149.2 480.2 L151.2 479.9 L153.3 479.3 L155.4 477.4 L157.5 476.7 L159.5 474.4 L161.6 473.2 L163.7 471.1 L165.7 472.4 L167.8 472.6 L169.9 473.1 L172.0 472.5 L174.0 472.2 L176.1 473.0 L178.2 472.6 L180.2 470.9 L182.3 468.9 L184.4 466.5 L186.5 467.9 L188.5 468.0 L190.6 466.5 L192.7 468.6 L194.7 467.4 L196.8 464.9 L198.9 464.2 L201.0 461.2 L203.0 463.2 L205.1 460.9 L207.2 462.1 L209.3 461.5 L211.3 460.6 L213.4 458.5 L215.5 457.2 L217.5 456.0 L219.6 455.0 L221.7 456.6 L223.8 454.4 L225.8 455.4 L227.9 456.4 L230.0 454.6 L232.0 453.3 L234.1 452.4 L236.2 451.3 L238.3 450.1 L240.3 451.5 L242.4 451.0 L244.5 449.3 L246.5 450.5 L248.6 449.3 L250.7 450.7 L252.8 452.1 L254.8 447.4 L256.9 445.9 L259.0 446.2 L261.1 445.1 L263.1 446.7 L265.2 445.2 L267.3 443.3 L269.3 444.6 L271.4 444.5 L273.5 442.2 L275.6 443.2 L277.6 441.1 L279.7 442.7 L281.8 443.3 L283.8 444.0 L285.9 442.9 L288.0 441.5 L290.1 443.6 L292.1 444.4 L294.2 443.2 L296.3 443.5 L298.3 443.5 L300.4 443.1 L302.5 443.1 L304.6 444.3 L306.6 443.2 L308.7 443.2 L310.8 444.2 L312.8 444.2 L314.9 443.9 L317.0 442.7 L319.1 443.9 L321.1 443.4 L323.2 446.8 L325.3 447.3 L327.4 446.4 L329.4 447.0 L331.5 445.8 L333.6 445.4 L335.6 445.1 L337.7 445.7 L339.8 445.3 L341.9 445.3 L343.9 443.7 L346.0 437.9 L348.1 439.6 L350.1 441.0 L352.2 438.9 L354.3 436.7 L356.4 436.0 L358.4 434.7 L360.5 431.8 L362.6 431.7 L364.6 431.3 L366.7 429.2 L368.8 433.7 L370.9 432.9 L372.9 432.1 L375.0 432.8 L377.1 430.3 L379.2 429.5 L381.2 427.8 L383.3 425.6 L385.4 424.8 L387.4 425.4 L389.5 424.4 L391.6 425.3 L393.7 424.4 L395.7 423.7 L397.8 421.9 L399.9 422.1 L401.9 421.0 L404.0 419.6 L406.1 421.0 L408.2 418.0 L410.2 415.5 L412.3 413.0 L414.4 412.8 L416.4 412.5 L418.5 409.6 L420.6 410.7 L422.7 411.5 L424.7 409.9 L426.8 408.7 L428.9 408.6 L430.9 407.1 L433.0 404.0 L435.1 404.8 L437.2 404.2 L439.2 403.7 L441.3 403.6 L443.4 401.2 L445.5 400.8 L447.5 401.9 L449.6 401.1 L451.7 401.2 L453.7 399.2 L455.8 396.7 L457.9 396.9 L460.0 396.0 L462.0 394.8 L464.1 394.5 L466.2 394.2 L468.2 395.5 L470.3 395.6 L472.4 395.8 L474.5 395.7 L476.5 397.0 L478.6 397.3 L480.7 399.7 L482.7 398.8 L484.8 397.3 L486.9 399.6 L489.0 401.6 L491.0 399.4 L493.1 398.4 L495.2 397.9 L497.3 398.1 L499.3 396.1 L501.4 395.1 L503.5 394.4 L505.5 395.0 L507.6 390.4 L509.7 393.6 L511.8 394.2 L513.8 392.6 L515.9 391.6 L518.0 388.8 L520.0 388.4 L522.1 388.5 L524.2 387.1 L526.3 386.7 L528.3 383.8 L530.4 383.0 L532.5 382.8 L534.5 381.4 L536.6 383.3 L538.7 380.4 L540.8 380.0 L542.8 376.2 L544.9 376.1 L547.0 377.8 L549.1 375.1 L551.1 372.1 L553.2 372.8 L555.3 371.3 L557.3 371.2 L559.4 371.2 L561.5 367.1 L563.6 367.2 L565.6 367.1 L567.7 366.6 L569.8 367.5 L571.8 366.2 L573.9 364.7 L576.0 363.1 L578.1 361.8 L580.1 363.2 L582.2 362.9 L584.3 364.0 L586.3 363.6 L588.4 364.3 L590.5 363.1 L592.6 363.4 L594.6 366.2 L596.7 370.5 L598.8 367.8 L600.8 367.5 L602.9 367.8 L605.0 366.3 L607.1 367.7 L609.1 368.5 L611.2 366.9 L613.3 363.9 L615.4 364.3 L617.4 363.4 L619.5 362.9 L621.6 360.7 L623.6 361.9 L625.7 359.5 L627.8 362.1 L629.9 361.5 L631.9 360.1 L634.0 359.0 L636.1 354.9 L638.1 356.7 L640.2 357.4 L642.3 358.1 L644.4 358.2 L646.4 360.3 L648.5 360.2 L650.6 361.1 L652.6 361.2 L654.7 358.5 L656.8 360.4 L658.9 361.1 L660.9 359.5 L663.0 355.8 L665.1 354.3 L667.2 353.0 L669.2 354.0 L671.3 349.8 L673.4 347.7 L675.4 348.8 L677.5 349.0 L679.6 351.5 L681.7 354.9 L683.7 355.0 L685.8 352.9 L687.9 350.6 L689.9 350.8 L692.0 349.7 L694.1 348.8 L696.2 349.0 L698.2 348.0 L700.3 346.2 L702.4 347.1 L704.4 346.7 L706.5 345.5 L708.6 344.2 L710.7 342.6 L712.7 346.4 L714.8 346.1 L716.9 346.8 L718.9 345.9 L721.0 346.5 L723.1 346.4 L725.2 345.7 L727.2 346.5 L729.3 348.5 L731.4 347.4 L733.5 347.2 L735.5 344.8 L737.6 344.5 L739.7 343.1 L741.7 341.9 L743.8 342.0 L745.9 337.8 L748.0 337.3 L750.0 332.8 L752.1 333.8 L754.2 332.8 L756.2 332.8 L758.3 331.9 L760.4 328.6 L762.5 329.1 L764.5 330.1 L766.6 327.9 L768.7 327.1 L770.7 326.8 L772.8 325.0 L774.9 322.6 L777.0 324.1 L779.0 324.8 L781.1 324.7 L783.2 322.2 L785.3 324.3 L787.3 326.8 L789.4 327.3 L791.5 324.3 L793.5 322.1 L795.6 322.2 L797.7 319.9 L799.8 319.2 L801.8 322.2 L803.9 319.3 L806.0 318.9 L808.0 317.4 L810.1 320.3 L812.2 320.5 L814.3 322.1 L816.3 325.9 L818.4 325.8 L820.5 327.5 L822.5 325.2 L824.6 328.5 L826.7 332.1 L828.8 331.0 L830.8 328.2 L832.9 329.5 L835.0 324.3 L837.1 327.7 L839.1 322.4 L841.2 321.5 L843.3 322.5 L845.3 319.9 L847.4 318.9 L849.5 320.4 L851.6 325.0 L853.6 325.0 L855.7 319.2 L857.8 315.3 L859.8 315.8 L861.9 314.8 L864.0 311.3 L866.1 313.2 L868.1 310.6 L870.2 309.1 L872.3 306.3 L874.3 304.5 L876.4 302.0 L878.5 302.4 L880.6 301.0 L882.6 303.7 L884.7 301.0 L886.8 299.3 L888.8 298.5 L890.9 298.5 L893.0 298.2 L895.1 296.0 L897.1 295.7 L899.2 293.8 L901.3 288.8 L903.4 286.8 L905.4 285.2 L907.5 285.2 L909.6 281.5 L911.6 278.2 L913.7 285.1 L915.8 284.0 L917.9 282.8 L919.9 285.9 L922.0 286.4" fill="none" stroke="#008300" stroke-width="2" stroke-linejoin="round"/>
<path d="M58.0 508.2 L60.1 509.7 L62.1 504.3 L64.2 505.5 L66.3 504.8 L68.4 505.9 L70.4 504.3 L72.5 503.8 L74.6 504.4 L76.6 502.0 L78.7 503.8 L80.8 503.1 L82.9 503.1 L84.9 501.4 L87.0 500.3 L89.1 500.0 L91.2 499.1 L93.2 498.2 L95.3 500.2 L97.4 496.8 L99.4 496.8 L101.5 494.5 L103.6 493.9 L105.7 496.2 L107.7 492.8 L109.8 493.4 L111.9 490.3 L113.9 489.2 L116.0 490.5 L118.1 492.1 L120.2 494.4 L122.2 493.5 L124.3 494.1 L126.4 493.2 L128.4 491.6 L130.5 491.9 L132.6 491.4 L134.7 494.6 L136.7 495.6 L138.8 494.1 L140.9 490.5 L142.9 488.6 L145.0 486.6 L147.1 484.7 L149.2 484.1 L151.2 481.9 L153.3 481.5 L155.4 479.0 L157.5 479.4 L159.5 476.6 L161.6 476.0 L163.7 473.0 L165.7 471.2 L167.8 470.2 L169.9 469.8 L172.0 468.2 L174.0 467.4 L176.1 470.3 L178.2 470.3 L180.2 466.3 L182.3 463.4 L184.4 458.3 L186.5 460.0 L188.5 456.4 L190.6 455.9 L192.7 458.2 L194.7 455.3 L196.8 450.6 L198.9 447.4 L201.0 441.5 L203.0 444.3 L205.1 440.4 L207.2 441.4 L209.3 440.8 L211.3 439.9 L213.4 438.0 L215.5 433.1 L217.5 429.7 L219.6 428.7 L221.7 430.6 L223.8 428.2 L225.8 432.4 L227.9 434.4 L230.0 432.6 L232.0 431.2 L234.1 430.4 L236.2 428.1 L238.3 424.5 L240.3 425.9 L242.4 425.6 L244.5 419.2 L246.5 418.7 L248.6 415.5 L250.7 417.5 L252.8 420.9 L254.8 422.4 L256.9 425.6 L259.0 423.3 L261.1 418.9 L263.1 422.5 L265.2 418.1 L267.3 413.5 L269.3 423.1 L271.4 423.0 L273.5 422.5 L275.6 423.6 L277.6 417.8 L279.7 420.0 L281.8 419.7 L283.8 419.3 L285.9 418.2 L288.0 416.4 L290.1 415.6 L292.1 416.0 L294.2 414.8 L296.3 414.5 L298.3 412.8 L300.4 412.6 L302.5 411.7 L304.6 413.4 L306.6 412.2 L308.7 411.4 L310.8 411.3 L312.8 412.6 L314.9 411.2 L317.0 407.7 L319.1 406.3 L321.1 406.5 L323.2 407.2 L325.3 407.8 L327.4 406.9 L329.4 407.5 L331.5 406.3 L333.6 405.9 L335.6 405.6 L337.7 406.9 L339.8 406.4 L341.9 406.4 L343.9 402.8 L346.0 394.9 L348.1 394.4 L350.1 391.0 L352.2 387.8 L354.3 388.5 L356.4 382.3 L358.4 379.6 L360.5 375.0 L362.6 372.9 L364.6 371.5 L366.7 370.9 L368.8 372.7 L370.9 373.1 L372.9 372.0 L375.0 371.4 L377.1 368.5 L379.2 366.2 L381.2 365.1 L383.3 365.5 L385.4 364.2 L387.4 364.0 L389.5 364.7 L391.6 365.5 L393.7 364.2 L395.7 361.2 L397.8 360.1 L399.9 358.9 L401.9 359.3 L404.0 355.7 L406.1 357.4 L408.2 352.2 L410.2 350.3 L412.3 344.1 L414.4 344.2 L416.4 341.3 L418.5 335.6 L420.6 338.3 L422.7 341.8 L424.7 340.8 L426.8 339.9 L428.9 339.2 L430.9 336.7 L433.0 334.5 L435.1 335.2 L437.2 335.1 L439.2 335.2 L441.3 334.9 L443.4 331.7 L445.5 330.4 L447.5 332.3 L449.6 333.9 L451.7 332.8 L453.7 332.9 L455.8 332.2 L457.9 330.9 L460.0 333.6 L462.0 333.9 L464.1 333.7 L466.2 333.4 L468.2 334.0 L470.3 335.8 L472.4 338.8 L474.5 339.3 L476.5 336.9 L478.6 335.3 L480.7 337.7 L482.7 336.7 L484.8 335.3 L486.9 337.6 L489.0 339.5 L491.0 337.3 L493.1 336.4 L495.2 335.9 L497.3 336.0 L499.3 334.2 L501.4 329.1 L503.5 330.7 L505.5 334.0 L507.6 328.4 L509.7 325.0 L511.8 321.5 L513.8 318.0 L515.9 313.2 L518.0 310.9 L520.0 311.2 L522.1 311.2 L524.2 309.9 L526.3 314.0 L528.3 309.9 L530.4 305.9 L532.5 304.5 L534.5 297.4 L536.6 300.0 L538.7 299.3 L540.8 296.4 L542.8 294.3 L544.9 293.3 L547.0 295.6 L549.1 297.1 L551.1 304.6 L553.2 305.3 L555.3 303.8 L557.3 303.7 L559.4 304.3 L561.5 298.5 L563.6 295.9 L565.6 293.1 L567.7 293.9 L569.8 299.5 L571.8 295.4 L573.9 295.1 L576.0 292.4 L578.1 289.2 L580.1 291.1 L582.2 290.6 L584.3 288.7 L586.3 283.8 L588.4 282.7 L590.5 279.0 L592.6 277.8 L594.6 275.6 L596.7 276.8 L598.8 271.5 L600.8 275.2 L602.9 275.3 L605.0 272.3 L607.1 271.9 L609.1 272.9 L611.2 270.9 L613.3 269.6 L615.4 269.7 L617.4 269.1 L619.5 267.5 L621.6 267.1 L623.6 267.9 L625.7 265.9 L627.8 267.8 L629.9 265.8 L631.9 264.9 L634.0 265.6 L636.1 266.2 L638.1 264.7 L640.2 265.0 L642.3 265.0 L644.4 264.9 L646.4 266.1 L648.5 265.9 L650.6 272.7 L652.6 273.4 L654.7 271.3 L656.8 269.9 L658.9 275.3 L660.9 276.2 L663.0 274.5 L665.1 271.3 L667.2 269.7 L669.2 268.7 L671.3 268.5 L673.4 266.0 L675.4 267.1 L677.5 266.7 L679.6 270.4 L681.7 269.7 L683.7 268.3 L685.8 267.3 L687.9 264.8 L689.9 264.8 L692.0 264.4 L694.1 264.8 L696.2 265.0 L698.2 263.4 L700.3 261.7 L702.4 261.3 L704.4 260.4 L706.5 258.3 L708.6 258.4 L710.7 253.9 L712.7 260.8 L714.8 261.9 L716.9 261.8 L718.9 260.1 L721.0 259.6 L723.1 257.7 L725.2 255.4 L727.2 255.8 L729.3 262.1 L731.4 260.7 L733.5 262.9 L735.5 260.9 L737.6 261.4 L739.7 261.4 L741.7 259.2 L743.8 262.7 L745.9 257.7 L748.0 256.9 L750.0 255.0 L752.1 254.9 L754.2 252.4 L756.2 251.6 L758.3 248.2 L760.4 246.9 L762.5 252.5 L764.5 253.6 L766.6 251.5 L768.7 250.6 L770.7 250.3 L772.8 247.4 L774.9 243.7 L777.0 245.4 L779.0 246.1 L781.1 245.9 L783.2 242.2 L785.3 244.5 L787.3 243.6 L789.4 245.1 L791.5 243.9 L793.5 243.1 L795.6 242.1 L797.7 241.3 L799.8 239.6 L801.8 243.0 L803.9 242.0 L806.0 243.6 L808.0 240.5 L810.1 245.1 L812.2 245.0 L814.3 247.0 L816.3 250.2 L818.4 250.1 L820.5 251.8 L822.5 249.5 L824.6 251.7 L826.7 255.2 L828.8 254.2 L830.8 252.5 L832.9 253.8 L835.0 247.8 L837.1 251.7 L839.1 247.4 L841.2 246.4 L843.3 247.0 L845.3 243.7 L847.4 240.2 L849.5 243.0 L851.6 247.1 L853.6 251.3 L855.7 245.5 L857.8 241.3 L859.8 241.6 L861.9 238.3 L864.0 232.6 L866.1 234.1 L868.1 230.3 L870.2 228.7 L872.3 224.5 L874.3 222.6 L876.4 219.4 L878.5 218.2 L880.6 215.4 L882.6 218.2 L884.7 213.7 L886.8 214.0 L888.8 213.4 L890.9 212.5 L893.0 212.3 L895.1 210.1 L897.1 210.1 L899.2 206.5 L901.3 205.4 L903.4 204.9 L905.4 203.6 L907.5 204.0 L909.6 203.3 L911.6 201.3 L913.7 204.5 L915.8 203.8 L917.9 203.3 L919.9 202.6 L922.0 203.0" fill="none" stroke="#eb6834" stroke-width="2" stroke-linejoin="round"/>
<path d="M58.0 508.2 L60.1 509.7 L62.1 504.3 L64.2 505.5 L66.3 504.8 L68.4 505.9 L70.4 504.3 L72.5 503.8 L74.6 504.4 L76.6 502.0 L78.7 503.8 L80.8 503.1 L82.9 503.1 L84.9 501.4 L87.0 500.3 L89.1 500.0 L91.2 499.1 L93.2 498.2 L95.3 500.2 L97.4 496.8 L99.4 496.8 L101.5 494.5 L103.6 493.9 L105.7 496.2 L107.7 492.8 L109.8 493.4 L111.9 490.3 L113.9 489.2 L116.0 490.5 L118.1 492.1 L120.2 494.4 L122.2 493.5 L124.3 494.1 L126.4 493.2 L128.4 491.6 L130.5 491.9 L132.6 491.4 L134.7 494.6 L136.7 495.6 L138.8 494.1 L140.9 490.5 L142.9 488.6 L145.0 486.6 L147.1 484.7 L149.2 484.1 L151.2 481.9 L153.3 481.5 L155.4 479.0 L157.5 479.4 L159.5 476.6 L161.6 476.0 L163.7 473.0 L165.7 471.2 L167.8 470.2 L169.9 469.8 L172.0 468.2 L174.0 467.4 L176.1 470.3 L178.2 470.3 L180.2 466.3 L182.3 463.4 L184.4 458.3 L186.5 460.0 L188.5 456.4 L190.6 455.9 L192.7 458.2 L194.7 455.3 L196.8 450.6 L198.9 447.4 L201.0 441.5 L203.0 444.3 L205.1 440.4 L207.2 441.4 L209.3 439.3 L211.3 437.8 L213.4 436.5 L215.5 431.6 L217.5 428.2 L219.6 427.2 L221.7 429.1 L223.8 426.7 L225.8 430.9 L227.9 441.0 L230.0 439.8 L232.0 437.5 L234.1 432.7 L236.2 428.4 L238.3 425.9 L240.3 431.6 L242.4 430.6 L244.5 424.2 L246.5 423.6 L248.6 418.2 L250.7 420.1 L252.8 421.5 L254.8 423.0 L256.9 426.2 L259.0 423.9 L261.1 419.5 L263.1 423.1 L265.2 418.7 L267.3 414.2 L269.3 417.6 L271.4 420.3 L273.5 417.1 L275.6 418.2 L277.6 412.4 L279.7 414.5 L281.8 414.3 L283.8 413.3 L285.9 407.9 L288.0 405.8 L290.1 405.1 L292.1 405.6 L294.2 404.1 L296.3 403.1 L298.3 401.5 L300.4 401.3 L302.5 400.4 L304.6 403.5 L306.6 401.6 L308.7 400.0 L310.8 398.3 L312.8 399.6 L314.9 398.2 L317.0 394.7 L319.1 393.3 L321.1 393.5 L323.2 394.2 L325.3 399.5 L327.4 397.9 L329.4 398.9 L331.5 398.9 L333.6 396.7 L335.6 395.9 L337.7 396.5 L339.8 397.3 L341.9 397.5 L343.9 391.7 L346.0 383.8 L348.1 383.4 L350.1 379.9 L352.2 376.7 L354.3 377.4 L356.4 371.2 L358.4 368.5 L360.5 364.0 L362.6 361.9 L364.6 360.4 L366.7 359.8 L368.8 361.6 L370.9 362.1 L372.9 361.0 L375.0 360.3 L377.1 357.4 L379.2 355.1 L381.2 354.0 L383.3 354.5 L385.4 353.1 L387.4 352.9 L389.5 353.6 L391.6 354.4 L393.7 353.1 L395.7 350.1 L397.8 349.1 L399.9 347.9 L401.9 348.2 L404.0 344.7 L406.1 346.3 L408.2 341.1 L410.2 339.2 L412.3 333.0 L414.4 333.2 L416.4 330.2 L418.5 324.6 L420.6 327.2 L422.7 330.7 L424.7 329.7 L426.8 328.8 L428.9 328.1 L430.9 325.7 L433.0 323.4 L435.1 324.1 L437.2 324.0 L439.2 324.1 L441.3 323.8 L443.4 320.6 L445.5 319.4 L447.5 321.2 L449.6 322.8 L451.7 321.1 L453.7 320.6 L455.8 319.6 L457.9 318.4 L460.0 319.3 L462.0 318.0 L464.1 318.1 L466.2 318.0 L468.2 318.0 L470.3 319.9 L472.4 322.8 L474.5 320.7 L476.5 318.3 L478.6 319.7 L480.7 330.5 L482.7 330.3 L484.8 324.7 L486.9 332.3 L489.0 338.7 L491.0 333.6 L493.1 329.0 L495.2 328.0 L497.3 328.9 L499.3 320.2 L501.4 316.1 L503.5 311.7 L505.5 315.1 L507.6 309.5 L509.7 306.0 L511.8 302.6 L513.8 299.1 L515.9 294.3 L518.0 292.0 L520.0 297.1 L522.1 302.0 L524.2 299.8 L526.3 303.0 L528.3 298.0 L530.4 294.0 L532.5 292.7 L534.5 285.5 L536.6 288.2 L538.7 287.4 L540.8 284.5 L542.8 282.5 L544.9 281.5 L547.0 283.7 L549.1 285.2 L551.1 290.5 L553.2 295.2 L555.3 289.3 L557.3 288.9 L559.4 289.3 L561.5 283.5 L563.6 280.9 L565.6 278.1 L567.7 278.9 L569.8 284.5 L571.8 280.4 L573.9 280.1 L576.0 277.4 L578.1 274.1 L580.1 276.1 L582.2 275.6 L584.3 273.7 L586.3 268.8 L588.4 267.7 L590.5 264.0 L592.6 262.8 L594.6 260.6 L596.7 261.8 L598.8 256.4 L600.8 260.1 L602.9 260.3 L605.0 257.3 L607.1 256.9 L609.1 257.9 L611.2 255.9 L613.3 254.6 L615.4 254.7 L617.4 254.1 L619.5 252.5 L621.6 252.0 L623.6 252.9 L625.7 250.9 L627.8 252.8 L629.9 250.8 L631.9 249.9 L634.0 250.6 L636.1 251.2 L638.1 249.7 L640.2 250.0 L642.3 250.0 L644.4 249.9 L646.4 251.1 L648.5 250.9 L650.6 257.2 L652.6 257.6 L654.7 255.6 L656.8 254.2 L658.9 259.6 L660.9 260.5 L663.0 258.8 L665.1 255.6 L667.2 254.0 L669.2 253.0 L671.3 252.8 L673.4 250.3 L675.4 251.4 L677.5 251.0 L679.6 254.7 L681.7 254.0 L683.7 252.6 L685.8 251.6 L687.9 249.1 L689.9 249.1 L692.0 248.7 L694.1 249.1 L696.2 249.3 L698.2 247.7 L700.3 246.0 L702.4 245.6 L704.4 244.7 L706.5 242.6 L708.6 242.6 L710.7 238.2 L712.7 241.6 L714.8 242.7 L716.9 242.6 L718.9 240.9 L721.0 240.5 L723.1 238.6 L725.2 236.2 L727.2 236.7 L729.3 243.0 L731.4 241.6 L733.5 243.3 L735.5 240.6 L737.6 241.1 L739.7 241.2 L741.7 238.9 L743.8 242.5 L745.9 237.5 L748.0 236.6 L750.0 234.8 L752.1 234.6 L754.2 232.1 L756.2 231.3 L758.3 227.9 L760.4 226.6 L762.5 232.3 L764.5 238.2 L766.6 232.2 L768.7 229.0 L770.7 226.6 L772.8 220.7 L774.9 217.0 L777.0 221.5 L779.0 221.3 L781.1 215.7 L783.2 212.0 L785.3 214.3 L787.3 213.5 L789.4 214.9 L791.5 213.7 L793.5 212.9 L795.6 212.0 L797.7 211.1 L799.8 209.4 L801.8 212.8 L803.9 211.9 L806.0 213.4 L808.0 210.3 L810.1 214.9 L812.2 213.9 L814.3 212.1 L816.3 215.3 L818.4 214.9 L820.5 216.8 L822.5 212.5 L824.6 214.4 L826.7 220.2 L828.8 220.2 L830.8 217.8 L832.9 219.1 L835.0 213.1 L837.1 217.0 L839.1 212.7 L841.2 211.7 L843.3 212.3 L845.3 209.0 L847.4 205.5 L849.5 208.3 L851.6 212.3 L853.6 216.6 L855.7 210.8 L857.8 206.6 L859.8 206.9 L861.9 203.6 L864.0 197.9 L866.1 199.4 L868.1 195.6 L870.2 194.0 L872.3 189.8 L874.3 187.9 L876.4 184.7 L878.5 183.5 L880.6 180.6 L882.6 183.5 L884.7 179.0 L886.8 179.3 L888.8 178.7 L890.9 176.1 L893.0 176.0 L895.1 173.8 L897.1 173.8 L899.2 170.2 L901.3 169.1 L903.4 168.6 L905.4 167.3 L907.5 167.8 L909.6 167.0 L911.6 165.0 L913.7 167.5 L915.8 166.3 L917.9 165.8 L919.9 165.1 L922.0 165.4" fill="none" stroke="#2a78d6" stroke-width="2" stroke-linejoin="round"/>
<text x="929" y="131.5" font-size="12" font-weight="640" fill="#8a8a7e" font-family="ui-monospace,Menlo,monospace">SPY ×36</text>
<text x="929" y="169.4" font-size="12" font-weight="640" fill="#2a78d6" font-family="ui-monospace,Menlo,monospace">Verdad ×25</text>
<text x="929" y="207.0" font-size="12" font-weight="640" fill="#eb6834" font-family="ui-monospace,Menlo,monospace">+VIX ×18</text>
<text x="929" y="255.8" font-size="12" font-weight="640" fill="#b0b0a4" font-family="ui-monospace,Menlo,monospace">B ×11</text>
<text x="929" y="290.4" font-size="12" font-weight="640" fill="#008300" font-family="ui-monospace,Menlo,monospace">my ×8</text>
<rect x="58" y="571" width="16" height="3" rx="1.5" fill="#2a78d6"/>
<text x="80" y="577" font-size="12" fill="#57574e">Verdad (signal+trend)</text>
<rect x="257.0" y="571" width="16" height="3" rx="1.5" fill="#eb6834"/>
<text x="279.0" y="577" font-size="12" fill="#57574e">Verdad + VIX→barbell</text>
<rect x="449.0" y="571" width="16" height="3" rx="1.5" fill="#008300"/>
<text x="471.0" y="577" font-size="12" fill="#57574e">My stack (macro+crisis)</text>
<rect x="662.0" y="571" width="16" height="3" rx="1.5" fill="#8a8a7e"/>
<text x="684.0" y="577" font-size="12" fill="#57574e">SPY (100% equity)</text>
<rect x="833.0" y="571" width="16" height="3" rx="1.5" fill="#b0b0a4"/>
<text x="855.0" y="577" font-size="12" fill="#57574e">B (risk-parity)</text>
<text x="58" y="644" font-size="11.5" fill="#8a8a7e">Crisis bands: the VIX brake (orange) pays in 2000-02 &amp; 2008, whipsaws in 2020. Log scale — equal vertical distance = equal % gain.</text>
</svg>